<svg xmlns="http://www.w3.org/2000/svg" width="1600" height="900" viewBox="0 0 1600 900"><defs><marker id="a" markerWidth="10" markerHeight="10" refX="8" refY="3" orient="auto"><path d="M0,0 L0,6 L9,3 z" fill="#86efac"/></marker><style>.t{font-family:'Segoe Print','Comic Sans MS',cursive;fill:#f8fafc}.b{fill:#171717;stroke:#f8fafc;stroke-width:4}.p{fill:#171717;stroke:#c084fc;stroke-width:4}.d{fill:#171717;stroke:#60a5fa;stroke-width:4}.l{stroke:#86efac;stroke-width:5;fill:none;marker-end:url(#a)}</style></defs><rect width="1600" height="900" fill="#101113"/><text x="800" y="90" text-anchor="middle" class="t" font-size="52">Mandatory sales-management flow</text><g text-anchor="middle"><rect class="p" x="55" y="270" width="210" height="120" rx="22"/><text class="t" x="160" y="340" font-size="29">Director</text><rect class="b" x="335" y="270" width="210" height="120" rx="22"/><text class="t" x="440" y="340" font-size="28">Create Sale</text><rect class="b" x="615" y="270" width="210" height="120" rx="22"/><text class="t" x="720" y="340" font-size="28">Create Agency</text><rect class="b" x="895" y="270" width="210" height="120" rx="22"/><text class="t" x="1000" y="340" font-size="28">Assign owner</text><rect class="b" x="1175" y="270" width="210" height="120" rx="22"/><text class="t" x="1280" y="340" font-size="28">Create Oppo</text><rect class="p" x="1395" y="270" width="160" height="120" rx="22"/><text class="t" x="1475" y="330" font-size="25">Dashboard</text><text class="t" x="1475" y="365" font-size="25">overview</text></g><path class="l" d="M265 330H335"/><path class="l" d="M545 330H615"/><path class="l" d="M825 330H895"/><path class="l" d="M1105 330H1175"/><path class="l" d="M1385 330H1395"/><g text-anchor="middle"><rect class="d" x="350" y="590" width="160" height="90" rx="18"/><text class="t" x="430" y="645" font-size="27">Sale</text><rect class="d" x="630" y="590" width="160" height="90" rx="18"/><text class="t" x="710" y="645" font-size="27">Agency</text><rect class="d" x="910" y="590" width="160" height="90" rx="18"/><text class="t" x="990" y="645" font-size="27">Oppo</text><rect class="d" x="1190" y="590" width="160" height="90" rx="18"/><text class="t" x="1270" y="645" font-size="27">Stats</text></g><path class="l" d="M440 590V390"/><path class="l" d="M710 590V390"/><path class="l" d="M990 590V390"/><path class="l" d="M1270 590V390"/><text class="t" x="800" y="790" text-anchor="middle" font-size="27" fill="#86efac">linked data • validated ownership • visible metrics</text></svg>
