<svg xmlns="http://www.w3.org/2000/svg" width="1600" height="900" viewBox="0 0 1600 900"><defs><marker id="a" markerWidth="10" markerHeight="10" refX="8" refY="3" orient="auto"><path d="M0,0 L0,6 L9,3 z" fill="#f8fafc"/></marker><marker id="r" markerWidth="10" markerHeight="10" refX="8" refY="3" orient="auto"><path d="M0,0 L0,6 L9,3 z" fill="#f87171"/></marker><marker id="g" markerWidth="10" markerHeight="10" refX="8" refY="3" orient="auto"><path d="M0,0 L0,6 L9,3 z" fill="#86efac"/></marker><style>.t{font-family:'Segoe Print','Comic Sans MS',cursive;fill:#f8fafc}.b{fill:#171717;stroke:#f8fafc;stroke-width:4}.p{fill:#171717;stroke:#c084fc;stroke-width:4}.bad{stroke:#f87171;stroke-width:5;fill:none;marker-end:url(#r)}.ok{stroke:#86efac;stroke-width:5;fill:none;marker-end:url(#g)}.l{stroke:#f8fafc;stroke-width:5;fill:none;marker-end:url(#a)}</style></defs><rect width="1600" height="900" fill="#101113"/><text x="800" y="85" text-anchor="middle" class="t" font-size="52">Offboarding guard and rejected-action flow</text><g text-anchor="middle"><rect class="p" x="70" y="300" width="230" height="120" rx="22"/><text class="t" x="185" y="350" font-size="27">Hover 3 seconds</text><text class="t" x="185" y="390" font-size="24">button armed</text><rect class="b" x="390" y="300" width="230" height="120" rx="22"/><text class="t" x="505" y="350" font-size="27">Reason report</text><text class="t" x="505" y="390" font-size="24">submit</text><rect class="b" x="710" y="300" width="230" height="120" rx="22"/><text class="t" x="825" y="350" font-size="27">sale_offboarding</text><text class="t" x="825" y="390" font-size="24">service</text><path class="b" d="M1110 270L1230 360L1110 450L990 360Z"/><text class="t" x="1110" y="345" font-size="23">owns Agency</text><text class="t" x="1110" y="380" font-size="23">or open Oppo?</text><rect class="p" x="1330" y="190" width="210" height="120" rx="22"/><text class="t" x="1435" y="240" font-size="25">REASSIGN</text><text class="t" x="1435" y="280" font-size="25">REQUIRED</text><rect class="p" x="1330" y="510" width="210" height="120" rx="22"/><text class="t" x="1435" y="560" font-size="25">INACTIVE +</text><text class="t" x="1435" y="600" font-size="25">report + log</text></g><path class="l" d="M300 360H390"/><path class="l" d="M620 360H710"/><path class="l" d="M940 360H990"/><path class="bad" d="M1230 360H1280V250H1330"/><text class="t" x="1260" y="225" fill="#f87171" font-size="24">yes</text><path class="ok" d="M1110 450V570H1330"/><text class="t" x="1150" y="530" fill="#86efac" font-size="24">no</text><text class="t" x="800" y="770" text-anchor="middle" font-size="27" fill="#f87171">No deactivation until ownership is reassigned.</text></svg>
