<svg xmlns="http://www.w3.org/2000/svg" width="1600" height="900" viewBox="0 0 1600 900"><defs><marker id="a" markerWidth="10" markerHeight="10" refX="8" refY="3" orient="auto"><path d="M0,0 L0,6 L9,3 z" fill="#f8fafc"/></marker><style>.t{font-family:'Segoe Print','Comic Sans MS',cursive;fill:#f8fafc}.b{fill:#171717;stroke:#f8fafc;stroke-width:4}.g{fill:#171717;stroke:#86efac;stroke-width:4}.p{fill:#171717;stroke:#c084fc;stroke-width:4}.l{stroke:#f8fafc;stroke-width:5;fill:none;marker-end:url(#a)}</style></defs><rect width="1600" height="900" fill="#101113"/><text x="800" y="85" text-anchor="middle" class="t" font-size="52">Automated verification map</text><g text-anchor="middle"><rect class="p" x="80" y="320" width="230" height="130" rx="22"/><text class="t" x="195" y="375" font-size="29">Domain tests</text><text class="t" x="195" y="415" font-size="23">stage • assign • perm</text><rect class="p" x="405" y="320" width="230" height="130" rx="22"/><text class="t" x="520" y="375" font-size="29">Service tests</text><text class="t" x="520" y="415" font-size="23">transactions • storage</text><rect class="p" x="730" y="320" width="230" height="130" rx="22"/><text class="t" x="845" y="375" font-size="29">Repository tests</text><text class="t" x="845" y="415" font-size="23">scope • metrics • ETL</text><rect class="p" x="1055" y="320" width="230" height="130" rx="22"/><text class="t" x="1170" y="375" font-size="29">Rec tests</text><text class="t" x="1170" y="415" font-size="23">ranking • visitors</text><rect class="g" x="650" y="610" width="300" height="130" rx="24"/><text class="t" x="800" y="665" font-size="32">pytest + mypy</text><text class="t" x="800" y="710" font-size="24">repeatable verification</text></g><path class="l" d="M195 450V550H650"/><path class="l" d="M520 450V550H720"/><path class="l" d="M845 450V610"/><path class="l" d="M1170 450V550H950"/><text class="t" x="800" y="820" text-anchor="middle" font-size="26" fill="#86efac">rules, workflows, queries, ETL, and recommendations verified independently</text></svg>
